<svg xmlns="http://www.w3.org/2000/svg" width="413.493" height="489.06" viewBox="0 0 413.493 489.06">
  <g id="אייקון_רקע_שקוף_ורוד_כחול" data-name="אייקון רקע שקוף ורוד כחול" transform="matrix(0.883, 0.469, -0.469, 0.883, 199.56, -4.496)" opacity="0.1">
    <path id="Path_39" data-name="Path 39" d="M196.4,773.163C138.745,752.831,60.478,759.1,21.557,787.154c-38.905,28.05-23.721,67.266,33.934,87.6,57.635,20.324,135.9,14.059,174.807-13.992,38.921-28.058,23.737-67.278-33.9-87.6Zm-87.768,63.279c-14.169-5-17.9-14.637-8.352-21.525s28.806-8.438,42.979-3.44c14.149,4.991,17.884,14.633,8.32,21.529s-28.794,8.426-42.943,3.436Z" transform="translate(0 -461.623)" fill="#0f8acb"/>
    <path id="Path_40" data-name="Path 40" d="M78.22,523.69c4.817,5.628,38.448,43.589,94.58,43.844,56.813.26,90.991-38.315,95.726-43.844q-47.648,78.111-95.3,156.218" transform="translate(-47.437 -317.578)" fill="#e11a61"/>
    <path id="Path_41" data-name="Path 41" d="M140.7,0C72.624,0,24.34,48.091,24.34,116.058S72.624,232.112,140.7,232.112s116.357-48.091,116.357-116.054S208.778,0,140.7,0Zm.1,158.513a42.457,42.457,0,1,1,42.459-42.455A42.455,42.455,0,0,1,140.8,158.513Z" transform="translate(-14.763)" fill="#e11a61"/>
  </g>
</svg>
