<svg xmlns="http://www.w3.org/2000/svg" width="214.987" height="288.271" viewBox="0 0 214.987 288.271">
  <g id="אייקון_רקע_שקוף_ירוק_ורוד" data-name="אייקון רקע שקוף ירוק ורוד" transform="translate(-5.529 42.781) rotate(-17)" opacity="0.1">
    <path id="Path_33" data-name="Path 33" d="M118.608,768.433c-34.819-12.279-82.086-8.495-105.591,8.45s-14.326,40.623,20.494,52.9,82.074,8.49,105.57-8.45,14.335-40.63-20.475-52.9Zm-53,38.216c-8.557-3.019-10.812-8.84-5.044-13s17.4-5.1,25.956-2.077,10.8,8.837,5.025,13-17.389,5.089-25.934,2.075Z" transform="translate(0 -580.288)" fill="#e11a61"/>
    <path id="Path_34" data-name="Path 34" d="M78.22,523.69c2.909,3.4,23.22,26.324,57.119,26.479,34.31.157,54.951-23.139,57.811-26.479q-28.776,47.173-57.552,94.343" transform="translate(-59.632 -399.215)" fill="#81c341"/>
    <path id="Path_35" data-name="Path 35" d="M94.613,0C53.5,0,24.34,29.043,24.34,70.09s29.16,70.087,70.273,70.087,70.27-29.043,70.27-70.087S135.726,0,94.613,0Zm.062,95.729A25.641,25.641,0,1,1,120.316,70.09,25.639,25.639,0,0,1,94.674,95.729Z" transform="translate(-18.558)" fill="#81c341"/>
  </g>
</svg>
