<?xml version="1.0" encoding="UTF-8"?><svg id="Layer_1" xmlns="http://www.w3.org/2000/svg" viewBox="0 0 489.08 383.88"><defs><style>.cls-1{stroke-width:8px;}.cls-1,.cls-2{fill:#fff;}.cls-1,.cls-2,.cls-3{stroke:#231f20;stroke-miterlimit:10;}.cls-2,.cls-3{stroke-width:7px;}.cls-3{fill:#f9d251;}.cls-4{fill:#231f20;}</style></defs><circle class="cls-2" cx="72.16" cy="340.65" r="39.23"/><circle class="cls-1" cx="302.16" cy="340.65" r="39.23"/><path class="cls-3" d="m289.17,348.94H83.89c-44.4,0-80.39-35.99-80.39-80.39V83.89C3.5,39.49,39.49,3.5,83.89,3.5h205.29c44.4,0,80.39,35.99,80.39,80.39v39.09h109.94s-109.94,92.82-109.94,92.82v52.76c0,44.4-35.99,80.39-80.39,80.39Z"/><rect class="cls-4" x="68.46" y="26.29" width="233.7" height="50.28" rx="8.01" ry="8.01"/><rect class="cls-4" x="29.23" y="96.46" width="312.15" height="155.8" rx="40.33" ry="40.33"/><circle class="cls-4" cx="44.42" cy="289.55" r="15.19"/><circle class="cls-4" cx="69.56" cy="289.55" r="15.19"/><circle class="cls-4" cx="301.05" cy="289.55" r="15.19"/><circle class="cls-4" cx="326.19" cy="289.55" r="15.19"/><rect class="cls-4" x="49.67" y="321.32" width="270.17" height="11.6" rx="5.8" ry="5.8"/></svg>