<?xml version="1.0" encoding="UTF-8"?><svg id="Layer_1" xmlns="http://www.w3.org/2000/svg" viewBox="0 0 1069.32 314.56"><defs><style>.cls-1{fill:#fff;}.cls-2{fill:#008bcd;}.cls-3{fill:#81c341;}.cls-4{fill:none;stroke:#fff;stroke-miterlimit:10;stroke-width:6px;}</style></defs><path class="cls-2" d="m912.46,84.1c0-45.93,32.54-78.43,78.43-78.43s78.43,32.5,78.43,78.43-32.54,78.43-78.43,78.43-78.43-32.5-78.43-78.43Zm100.84,0c0-15.31-9.34-26.32-22.41-26.32s-22.41,11.01-22.41,26.32,9.34,26.32,22.41,26.32,22.41-11.01,22.41-26.32Z"/><g id="green_circle"><path class="cls-3" d="m209.89,262.1c0,28.97-44.6,52.46-103.41,52.46S0,291.07,0,262.1s47.67-52.46,106.48-52.46,103.41,23.49,103.41,52.46Z"/><ellipse class="cls-1" cx="104.94" cy="254.24" rx="30.78" ry="15.16"/></g><g id="text"><path class="cls-2" d="m321.54,162.78h-40.37c-4.47,0-8.1-3.63-8.1-8.1v-57.98c0-27.26-10.54-42.94-34.2-42.94-11.82,0-22.99,2.74-33.13,6.83-4.28,1.72-9.14-.38-10.72-4.72l-9.57-26.4c-1.38-3.81.24-8.1,3.86-9.94,19.13-9.72,38.9-14.11,61.39-14.11,42.94,0,78.94,21.08,78.94,77.39v71.87c0,4.47-3.63,8.1-8.1,8.1Z"/><path class="cls-2" d="m407.8,16.61v138.08c0,4.47-3.63,8.1-8.1,8.1h-40.37c-4.47,0-8.1-3.63-8.1-8.1V16.61c0-4.47,3.63-8.1,8.1-8.1h40.37c4.47,0,8.1,3.63,8.1,8.1Z"/><path class="cls-2" d="m603.48,81.02c0,54.51-36,86.14-86.65,86.14s-87.68-31.63-87.68-86.14V16.61c0-4.47,3.63-8.1,8.1-8.1h40.37c4.47,0,8.1,3.63,8.1,8.1v64.41c0,23.14,11.83,37.54,31.11,37.54s30.08-14.4,30.08-37.54c0-16.97-4.88-27.51-17.23-27.51-4.94,0-8.34.62-11.5,1.65-4.44,1.44-9.16-1.21-10.3-5.74l-6.93-27.55c-.98-3.88,1.02-7.91,4.71-9.45,9.18-3.83,20.8-6.48,32.76-6.48,37.28,0,65.05,21.86,65.05,75.08Z"/><path class="cls-2" d="m737.44,16.61v176.65c0,4.47-3.63,8.1-8.1,8.1h-40.37c-4.47,0-8.1-3.63-8.1-8.1V16.61c0-4.47,3.63-8.1,8.1-8.1h40.37c4.47,0,8.1,3.63,8.1,8.1Z"/><path class="cls-2" d="m898.79,115.21h0c4.47,0,8.1,3.63,8.1,8.1v31.37c0,4.47-3.63,8.1-8.1,8.1h-133.71c-4.47,0-8.1-3.63-8.1-8.1v-31.37c0-4.47,3.63-8.1,8.1-8.1h60.94c4.47,0,8.1-3.63,8.1-8.1v-18.13c0-19.28-4.88-35.74-27.51-35.74-11.65,0-22.39,3.33-31.17,7.33-4.14,1.88-9,.04-10.81-4.13l-11.39-26.24c-1.69-3.88-.12-8.46,3.65-10.39,18.4-9.42,37.78-14.14,56.15-14.14,49.88,0,77.65,26.74,77.65,77.65v23.78c0,4.47,3.63,8.1,8.1,8.1Z"/></g><circle class="cls-3" cx="351.24" cy="84.1" r="14.81"/><path class="cls-2" d="m16.87,87.75C16.87,36.53,53.42.28,104.94.28s88.07,36.25,88.07,87.47-88.07,174.35-88.07,174.35c0,0-88.07-123.12-88.07-174.35Zm113.23,0c0-17.07-10.48-29.36-25.16-29.36s-25.16,12.28-25.16,29.36,10.48,29.36,25.16,29.36,25.16-12.28,25.16-29.36Z"/><path class="cls-4" d="m16.87,90.47C16.87,39.25,53.42,3,104.94,3s88.07,36.25,88.07,87.47-36.55,87.47-88.07,87.47S16.87,141.7,16.87,90.47Zm113.23,0c0-17.07-10.48-29.36-25.16-29.36s-25.16,12.28-25.16,29.36,10.48,29.36,25.16,29.36,25.16-12.28,25.16-29.36Z"/></svg>