<?xml version="1.0" encoding="UTF-8"?><svg id="Layer_1" xmlns="http://www.w3.org/2000/svg" viewBox="0 0 639.98 1080"><defs><style>.cls-1{fill:#81c341;}.cls-2{fill:#e11a61;}</style></defs><path class="cls-2" d="m499.02,791.56c-146.49-51.66-345.35-35.74-444.24,35.55-98.85,71.27-60.27,170.91,86.22,222.57,146.44,51.64,345.3,35.72,444.15-35.55,98.89-71.29,60.31-170.94-86.14-222.57Zm-223,160.78c-36-12.7-45.49-37.19-21.22-54.69,24.3-17.52,73.19-21.44,109.2-8.74,35.95,12.68,45.44,37.18,21.14,54.7-24.27,17.5-73.16,21.41-109.11,8.73Z"/><path class="cls-1" d="m78.22,523.69c12.24,14.3,97.69,110.75,240.31,111.4,144.35.66,231.19-97.35,243.22-111.4-80.71,132.31-161.42,264.62-242.13,396.92"/><path class="cls-1" d="m319.99,0C147.02,0,24.34,122.19,24.34,294.88s122.68,294.87,295.65,294.87,295.64-122.19,295.64-294.87S492.96,0,319.99,0Zm.26,402.75c-59.58,0-107.87-48.3-107.87-107.87s48.29-107.88,107.87-107.88,107.88,48.3,107.88,107.88-48.3,107.87-107.88,107.87Z"/></svg>