<svg id="sabantoursLocationIcon" xmlns="http://www.w3.org/2000/svg" width="21.332" height="36" viewBox="0 0 21.332 36">
  <path id="Path_12" data-name="Path 12" d="M16.634,26.385C11.751,24.663,5.122,25.194,1.826,27.57s-2.009,5.7,2.874,7.419S16.21,36.18,19.5,33.8s2.01-5.7-2.871-7.419ZM9.2,31.745c-1.2-.423-1.516-1.24-.707-1.823a4.472,4.472,0,0,1,3.64-.291c1.2.423,1.515,1.239.7,1.823a4.47,4.47,0,0,1-3.637.291Z" transform="translate(0)" fill="#7fc142"/>
  <path id="Path_13" data-name="Path 13" d="M2.607,17.456a10.93,10.93,0,0,0,8.01,3.713,10.944,10.944,0,0,0,8.107-3.713L10.654,30.687" transform="translate(0)" fill="#0b89ca"/>
  <path id="Path_14" data-name="Path 14" d="M10.666,0A9.454,9.454,0,0,0,.811,9.829a9.454,9.454,0,0,0,9.855,9.829,9.454,9.454,0,0,0,9.855-9.829A9.454,9.454,0,0,0,10.666,0Zm.009,13.425a3.6,3.6,0,1,1,3.6-3.6A3.6,3.6,0,0,1,10.675,13.425Z" transform="translate(0)" fill="#0b89ca"/>
</svg>
