<?xml version="1.0" encoding="UTF-8"?><svg id="Layer_1" xmlns="http://www.w3.org/2000/svg" viewBox="0 0 1063.95 312.74"><defs><style>.cls-1{fill:#7fc342;}.cls-2{fill:#008bcd;}.cls-3{fill:#81c341;}.cls-4{fill:#0f8acb;}</style></defs><path class="cls-2" d="m907.09,82.94c0-45.93,32.54-78.43,78.43-78.43s78.43,32.5,78.43,78.43-32.54,78.43-78.43,78.43-78.43-32.5-78.43-78.43Zm100.84,0c0-15.31-9.34-26.32-22.41-26.32s-22.41,11.01-22.41,26.32,9.34,26.32,22.41,26.32,22.41-11.01,22.41-26.32Z"/><g id="text"><path class="cls-2" d="m316.17,161.62h-40.37c-4.47,0-8.1-3.63-8.1-8.1v-57.98c0-27.26-10.54-42.94-34.2-42.94-11.82,0-22.99,2.74-33.13,6.83-4.28,1.72-9.14-.38-10.72-4.72l-9.57-26.4c-1.38-3.81.24-8.1,3.86-9.94,19.13-9.72,38.9-14.11,61.39-14.11,42.94,0,78.94,21.08,78.94,77.39v71.87c0,4.47-3.63,8.1-8.1,8.1Z"/><path class="cls-2" d="m402.44,15.45v138.08c0,4.47-3.63,8.1-8.1,8.1h-40.37c-4.47,0-8.1-3.63-8.1-8.1V15.45c0-4.47,3.63-8.1,8.1-8.1h40.37c4.47,0,8.1,3.63,8.1,8.1Z"/><path class="cls-2" d="m598.11,79.86c0,54.51-36,86.14-86.65,86.14s-87.68-31.63-87.68-86.14V15.45c0-4.47,3.63-8.1,8.1-8.1h40.37c4.47,0,8.1,3.63,8.1,8.1v64.41c0,23.14,11.83,37.54,31.11,37.54s30.08-14.4,30.08-37.54c0-16.97-4.88-27.51-17.23-27.51-4.94,0-8.34.62-11.5,1.65-4.44,1.44-9.16-1.21-10.3-5.74l-6.93-27.55c-.98-3.88,1.02-7.91,4.71-9.45,9.18-3.83,20.8-6.48,32.76-6.48,37.28,0,65.05,21.86,65.05,75.08Z"/><path class="cls-2" d="m732.08,15.45v176.65c0,4.47-3.63,8.1-8.1,8.1h-40.37c-4.47,0-8.1-3.63-8.1-8.1V15.45c0-4.47,3.63-8.1,8.1-8.1h40.37c4.47,0,8.1,3.63,8.1,8.1Z"/><path class="cls-2" d="m893.43,114.06h0c4.47,0,8.1,3.63,8.1,8.1v31.37c0,4.47-3.63,8.1-8.1,8.1h-133.71c-4.47,0-8.1-3.63-8.1-8.1v-31.37c0-4.47,3.63-8.1,8.1-8.1h60.94c4.47,0,8.1-3.63,8.1-8.1v-18.13c0-19.28-4.88-35.74-27.51-35.74-11.65,0-22.39,3.33-31.17,7.33-4.14,1.88-9,.04-10.81-4.13l-11.39-26.24c-1.69-3.88-.12-8.46,3.65-10.39,18.4-9.42,37.78-14.14,56.15-14.14,49.88,0,77.65,26.74,77.65,77.65v23.78c0,4.47,3.63,8.1,8.1,8.1Z"/></g><circle class="cls-3" cx="345.87" cy="82.94" r="14.81"/><path class="cls-1" d="m144.5,229.21c-42.42-14.96-100-10.35-128.64,10.3-28.62,20.64-17.45,49.49,24.97,64.45,42.41,14.95,99.99,10.34,128.61-10.29,28.63-20.64,17.46-49.5-24.94-64.45Zm-64.57,46.56c-10.43-3.68-13.17-10.77-6.14-15.84,7.04-5.07,21.19-6.21,31.62-2.53s13.16,10.76,6.12,15.84c-7.03,5.07-21.19,6.2-31.6,2.53Z"/><path class="cls-4" d="m22.65,151.64c3.54,4.14,28.29,32.07,69.59,32.26,41.8.19,66.94-28.19,70.43-32.26-23.37,38.31-46.74,76.62-70.11,114.94"/><path class="cls-4" d="m92.66,0C42.57,0,7.05,35.38,7.05,85.39s35.52,85.39,85.61,85.39,85.61-35.38,85.61-85.39S142.75,0,92.66,0Zm.08,116.63c-17.25,0-31.24-13.99-31.24-31.24s13.98-31.24,31.24-31.24,31.24,13.99,31.24,31.24-13.99,31.24-31.24,31.24Z"/></svg>